<?xml version="1.0" encoding="utf-8"?>
<!-- Generator: Adobe Illustrator 22.0.0, SVG Export Plug-In . SVG Version: 6.00 Build 0)  -->
<svg version="1.1" id="svg" xmlns="http://www.w3.org/2000/svg" xmlns:xlink="http://www.w3.org/1999/xlink" x="0px" y="0px"
	 viewBox="0 0 512 512" style="enable-background:new 0 0 512 512;" xml:space="preserve">
<style type="text/css">
	.st0{fill:#1D508B;}
	.st1{fill:#F5F7F8;}
</style>
<rect id="backdrop" class="st0" width="512" height="512"/>
<path id="nscc" class="st1" d="M191.4,66.2c-7.2,1.5-23.3,9.2-28.2,13.1c-1.3,1-4.4,3.8-6.7,5.9c-7.9,7.2-10.5,4.4-7.4-8.4
	c1.8-7.2,2-7.2-26.4-7.2c-27.4,0-28.2,0.3-28.2,6.7c0,1.5-0.8,5.6-1.5,9.2c-0.8,3.3-1.8,8.4-2,11.3c-0.3,2.8-1.5,10-2.6,15.9
	c-1,5.9-2.8,16.6-4.1,23.6c-1.3,7.2-2.8,16.4-3.6,21c-3.1,16.9-3.6,20-7.2,41.5c-2,12-3.6,23-3.6,24.3v2.3h28.7
	c33,0,30,1.3,32.3-12.8c1-5.6,2.6-14.8,3.6-20.5c1-5.6,2.6-14.8,3.6-20.5c1-5.6,2.3-13.6,3.1-17.9c0.8-4.1,1.8-9.5,2-11.8
	c3.6-21.8,23.3-34.8,39.4-26.6c9.5,4.9,11,12.3,6.7,38.1c-3.8,23.8-6.4,38.4-7.7,43.5c-2,9-4.1,26.9-3.3,27.6
	c0.5,0.5,13.6,0.8,29.4,0.5l28.7-0.3l1.3-4.6c0.8-2.6,2.3-11,3.3-18.9c2.8-18.2,7.9-47.4,11-62.5c6.7-32.5-0.5-59.4-18.4-67.8
	C224.2,66.2,201.9,63.6,191.4,66.2 M355.8,67.9c-33.5,8.2-50.4,23.3-54.3,48.9c-4.1,27.6,8.2,38.9,53.8,48.6
	c26.6,5.6,32,9.2,29.2,20c-4.9,17.9-36.9,17.4-41.2-0.8l-1.3-5.4h-27.9c-32.3,0-30-1-27.9,11.3c4.6,30,33,43.3,83.5,38.7
	c33.5-3.1,45.6-7.7,61.4-23.3c11.5-11.5,16.4-22.5,16.1-38.4c0-20.7-15.6-32.5-52.2-40.4c-11.5-2.6-14.3-3.1-20.2-5.1
	c-14.8-5.1-18.4-11-11.3-18.9c9.2-10,27.9-7.4,32.8,4.6l1.8,4.4h26.4h26.4l0.3-5.6c1-18.4-10.5-31.5-34-38.1
	C403.9,64.9,369.6,64.4,355.8,67.9 M148,282.9c-39.4,6.1-68.9,30.2-80.9,65.5c-15.6,46.3-1.3,81.7,38.4,94.5
	c14.8,4.9,47.4,5.1,63.5,0.5c24.1-6.9,36.9-14.6,48.9-29.7c6.4-8.2,14.3-23.6,13.8-27.1l-0.3-2.3l-28.2-0.3c-31-0.3-30-0.5-33.3,6.1
	c-7.9,15.6-27.4,21.8-39.4,12.3c-8.4-6.7-12.3-24.3-7.9-37.4c0.8-2.3,1.8-6.4,2-8.7c1.5-11,12.5-27.1,21.5-32
	c13.1-6.9,29.2,0.5,31.7,14.8c1,5.6,0.3,5.6,31,5.6c33.3,0,31,1,29.4-13.3C234.5,296.2,195.6,275.2,148,282.9 M351.7,284.7
	c-43.5,10.8-68.4,36.9-76.8,81.2c-10.2,53.2,25.1,86.3,86.3,80.4c15.6-1.5,34.3-5.9,39.2-9.5c0.5-0.5,2.3-1,3.6-1.5
	c5.4-1.8,23.8-17.4,28.4-24.6c4.1-5.9,11.5-21,11.5-23c0-3.8-1.5-4.1-28.7-4.1c-30.5,0-28.4-0.3-33.3,6.7
	c-17.2,25.9-46.6,21-48.4-7.9c-1-17.9,5.9-39.9,16.1-51.5c13.3-14.8,39.9-9.7,39.9,7.7c0,6.1-0.3,5.9,30.7,5.9
	c34,0,31.5,1.3,30-13.6C446.2,293.6,401.2,272.4,351.7,284.7"/>
</svg>
