<?xml version="1.0" standalone="no"?>
<!DOCTYPE svg PUBLIC "-//W3C//DTD SVG 20010904//EN"
 "http://www.w3.org/TR/2001/REC-SVG-20010904/DTD/svg10.dtd">
<svg version="1.0" xmlns="http://www.w3.org/2000/svg"
 width="512.000000pt" height="512.000000pt" viewBox="0 0 512.000000 512.000000"
 preserveAspectRatio="xMidYMid meet">
<metadata>
Created by potrace 1.11, written by Peter Selinger 2001-2013
</metadata>
<g transform="translate(0.000000,512.000000) scale(0.100000,-0.100000)"
fill="#000000" stroke="none">
<path d="M0 2560 l0 -2560 2560 0 2560 0 0 2560 0 2560 -2560 0 -2560 0 0
-2560z m2167 1900 c178 -29 257 -80 318 -203 71 -144 80 -308 30 -565 -38
-198 -72 -394 -95 -542 -11 -74 -27 -168 -36 -208 l-15 -72 -292 2 -292 3 3
73 c1 40 13 130 27 200 56 288 95 549 95 638 0 108 -18 145 -90 182 -88 44
-203 18 -285 -63 -73 -73 -87 -122 -165 -573 -39 -227 -74 -420 -77 -428 -11
-29 -56 -34 -324 -34 l-269 0 0 23 c0 34 41 286 123 762 41 237 83 475 92 530
10 55 21 124 24 154 9 66 23 77 105 86 80 9 415 1 440 -10 15 -6 17 -15 12
-44 -28 -162 -13 -173 99 -73 52 47 239 144 310 161 55 12 187 13 262 1z
m1858 0 c61 -6 128 -15 150 -21 74 -20 183 -77 230 -120 71 -65 98 -126 103
-231 l4 -88 -266 0 -266 0 -25 49 c-20 41 -34 54 -80 76 -47 24 -64 27 -111
22 -63 -7 -118 -37 -145 -81 -26 -43 -24 -63 14 -100 40 -41 116 -69 282 -107
244 -55 385 -113 464 -192 68 -66 84 -107 89 -219 7 -165 -38 -273 -169 -400
-174 -169 -362 -223 -774 -222 -241 0 -307 11 -432 71 -82 39 -175 135 -203
209 -31 82 -47 191 -31 207 9 9 86 13 286 15 l274 3 11 -43 c26 -97 97 -148
210 -148 113 0 191 56 206 147 14 87 -25 109 -298 177 -330 83 -436 133 -502
239 -25 41 -30 61 -34 133 -15 292 148 492 483 589 144 42 326 54 530 35z
m-2115 -2180 c285 -70 470 -268 474 -507 1 -73 0 -78 -24 -90 -35 -18 -515
-18 -548 0 -15 8 -30 31 -42 65 -39 119 -149 176 -274 141 -61 -17 -153 -115
-204 -218 -23 -46 -42 -92 -42 -102 0 -11 -10 -56 -21 -102 -45 -171 6 -338
121 -398 34 -17 137 -17 180 0 63 26 116 71 156 133 21 33 47 64 56 69 9 5
141 9 293 9 237 0 276 -2 281 -15 20 -51 -115 -275 -228 -380 -193 -179 -537
-266 -883 -224 -181 22 -319 85 -429 195 -178 177 -216 463 -103 787 147 421
545 678 1027 662 81 -2 155 -11 210 -25z m2125 1 c292 -76 475 -283 475 -537
0 -35 -5 -46 -22 -55 -29 -16 -315 -24 -462 -14 -120 8 -136 17 -136 72 0 125
-182 193 -319 118 -67 -37 -102 -79 -151 -180 -59 -123 -74 -190 -75 -340 0
-115 3 -135 22 -171 92 -172 301 -157 439 31 29 39 59 69 74 73 34 9 498 9
533 -1 18 -5 27 -14 27 -28 0 -29 -85 -194 -131 -257 -52 -68 -203 -193 -280
-231 -180 -90 -522 -135 -737 -97 -414 72 -619 366 -547 782 66 374 269 640
587 769 89 36 213 70 307 85 93 15 305 4 396 -19z"/>
</g>
</svg>
